<svg width="800" height="480" viewBox="0 0 800 480" fill="none" xmlns="http://www.w3.org/2000/svg">
  <defs>
    <linearGradient id="grad" x1="0" y1="0" x2="800" y2="480" gradientUnits="userSpaceOnUse">
      <stop stop-color="#CFE4FF"/>
      <stop offset="1" stop-color="#F1F5F9"/>
    </linearGradient>
  </defs>
  <rect width="800" height="480" rx="24" fill="url(#grad)"/>
  <g fill="#7AA6D9">
    <path d="M214 343c33.137 0 60-26.863 60-60s-26.863-60-60-60-60 26.863-60 60 26.863 60 60 60Zm0-20c-22.091 0-40-17.909-40-40s17.909-40 40-40 40 17.909 40 40-17.909 40-40 40Z"/>
    <path d="M145 343c3.85 0 7.259 2.55 8.388 6.237l19.862 65.535A10 10 0 0 0 183 422h437c7.732 0 14-6.268 14-14 0-1.726-.315-3.439-.929-5.057l-52.142-139.272a10 10 0 0 0-9.4-6.671h-30.864a10 10 0 0 0-9.457 7.126l-21.18 68.832-63.971-157.758A10 10 0 0 0 439.757 168h-37.286a10 10 0 0 0-9.31 6.221l-87.624 217.733-25.724-73.605A10 10 0 0 0 270 314h-40.914l-19.371-60.832A10 10 0 0 0 200.5 246h-45a10 10 0 0 0-9.586 12.906l29 90A10 10 0 0 0 184 354h74.98l26.66 76.309A10 10 0 0 0 295 438h76.02a10 10 0 0 0 9.29-6.155l70.69-175.543 66.179 163.075A10 10 0 0 0 516.667 428H636c5.523 0 10-4.477 10-10 0-1.276-.243-2.542-.714-3.73l-69.14-176.864a10 10 0 0 0-9.286-6.406h-34.772a10 10 0 0 0-9.515 6.869L430.1 400H320.143l92.022-237.461L493.66 322.75a10 10 0 0 0 9.388 6.462h32.626a10 10 0 0 0 9.602-7.35l18.205-61.208 44.697 119.394H204.488l-17.816-58.982A10 10 0 0 0 176 314h-21l-27.286-84H179.5a10 10 0 0 0 9.54-12.901l-9-28A10 10 0 0 0 170.5 182h-40a10 10 0 0 0-9.54 12.901l18 56A10 10 0 0 0 148.5 258h19l23.5 72H145Z"/>
    <path d="M540 250c30.376 0 55-24.624 55-55s-24.624-55-55-55-55 24.624-55 55 24.624 55 55 55Zm0-18c-20.435 0-37-16.565-37-37s16.565-37 37-37 37 16.565 37 37-16.565 37-37 37Z"/>
  </g>
  <g font-family="'Inter', system-ui, -apple-system, 'Segoe UI', sans-serif" fill="#274B7A">
    <text x="400" y="196" text-anchor="middle" font-size="32" font-weight="700">Family Adventure</text>
    <text x="400" y="232" text-anchor="middle" font-size="20">親子景點預覽圖</text>
  </g>
</svg>
